<?xml version="1.0" encoding="UTF-8" standalone="no"?>
<svg width="1200" height="600" viewBox="0 0 1200 600" xmlns="http://www.w3.org/2000/svg">
  <rect width="1200" height="600" fill="#f8f9fa"/>
  <g fill="#e9ecef" stroke="#dee2e6" stroke-width="1">
    <!-- Simplified world map outline -->
    <!-- North America -->
    <path d="M150,150 C250,100 350,120 450,150 C500,180 520,250 500,300 C480,350 430,380 380,400 C330,420 280,410 230,390 C180,370 150,330 130,280 C110,230 100,200 150,150 Z"/>
    <!-- South America -->
    <path d="M300,400 C350,380 400,390 430,440 C460,490 470,540 450,580 C430,620 380,630 330,610 C280,590 260,540 270,490 C280,440 300,420 300,400 Z"/>
    <!-- Europe -->
    <path d="M550,150 C600,130 650,120 700,130 C750,140 780,170 790,220 C800,270 790,320 760,360 C730,400 680,420 630,410 C580,400 550,370 530,320 C510,270 510,220 550,150 Z"/>
    <!-- Africa -->
    <path d="M550,300 C600,280 650,290 690,320 C730,350 750,400 740,450 C730,500 700,540 650,560 C600,580 550,570 510,540 C470,510 450,460 460,410 C470,360 500,320 550,300 Z"/>
    <!-- Asia -->
    <path d="M700,150 C750,130 800,120 850,130 C900,140 950,170 980,220 C1010,270 1020,330 1000,380 C980,430 940,470 890,490 C840,510 790,500 750,470 C710,440 690,390 680,340 C670,290 670,240 700,150 Z"/>
    <!-- Australia -->
    <path d="M900,450 C950,430 1000,440 1030,480 C1060,520 1070,570 1050,610 C1030,650 980,670 930,650 C880,630 850,590 850,540 C850,490 870,450 900,450 Z"/>
  </g>
</svg>